<svg xmlns="http://www.w3.org/2000/svg" viewBox="0 0 64 64" role="img" aria-labelledby="title">
  <title>apple</title>
  <style>
    :root {
      color-scheme: light dark;
      --plate: #f5f5f5;
      --stroke: #d4d4d8;
      --fg: #111827;
      --badge-stroke: rgba(17, 24, 39, 0.12);
      --accent: #f97316;
    }
    @media (prefers-color-scheme: dark) {
      :root {
        --plate: #18181b;
        --stroke: #3f3f46;
        --fg: #fafafa;
        --badge-stroke: rgba(250, 250, 250, 0.14);
        --accent: #fb923c;
      }
    }
    .theme-dark {
      display: none;
    }
    @media (prefers-color-scheme: dark) {
      .theme-light {
        display: none;
      }
      .theme-dark {
        display: inline;
      }
    }
</style>
  <rect x="6" y="6" width="52" height="52" rx="14" fill="var(--plate)" stroke="var(--stroke)" stroke-width="2" />
  
  <g class="theme-light">
    <svg x="16.5" y="16.5" width="31" height="31" viewBox="47.6 0 416.8 512" xml:space="preserve"><path d="M451.1 174.6c-3 2.3-55.4 31.8-55.4 97.5 0 76 66.7 102.9 68.7 103.5-.3 1.6-10.6 36.8-35.2 72.7-21.9 31.5-44.8 63-79.6 63s-43.8-20.2-84-20.2c-39.2 0-53.1 20.9-84.9 20.9s-54.1-29.2-79.6-65c-29.6-42.1-53.5-107.5-53.5-169.5 0-99.5 64.7-152.3 128.4-152.3 33.8 0 62.1 22.2 83.3 22.2 20.2 0 51.8-23.6 90.3-23.6 14.6 0 67 1.3 101.5 50.8m-119.8-93c15.9-18.9 27.2-45.1 27.2-71.3 0-3.6-.3-7.3-1-10.3-25.9 1-56.7 17.3-75.3 38.8-14.6 16.6-28.2 42.8-28.2 69.4 0 4 .7 8 1 9.3 1.6.3 4.3.7 7 .7 23.2-.1 52.4-15.6 69.3-36.6"/></svg>
  </g>
  <g class="theme-dark">
    <svg x="16.5" y="16.5" width="31" height="31" viewBox="47.6 0 416.8 512" xml:space="preserve"><path fill="#fff" d="M451.1 174.6c-3 2.3-55.4 31.8-55.4 97.5 0 76 66.7 102.9 68.7 103.5-.3 1.6-10.6 36.8-35.2 72.7-21.9 31.5-44.8 63-79.6 63s-43.8-20.2-84-20.2c-39.2 0-53.1 20.9-84.9 20.9s-54.1-29.2-79.6-65c-29.6-42.1-53.5-107.5-53.5-169.5 0-99.5 64.7-152.3 128.4-152.3 33.8 0 62.1 22.2 83.3 22.2 20.2 0 51.8-23.6 90.3-23.6 14.6 0 67 1.3 101.5 50.8m-119.8-93c15.9-18.9 27.2-45.1 27.2-71.3 0-3.6-.3-7.3-1-10.3-25.9 1-56.7 17.3-75.3 38.8-14.6 16.6-28.2 42.8-28.2 69.4 0 4 .7 8 1 9.3 1.6.3 4.3.7 7 .7 23.2-.1 52.4-15.6 69.3-36.6"/></svg>
  </g>
</svg>
