<svg xmlns="http://www.w3.org/2000/svg" viewBox="0 0 64 64" role="img" aria-labelledby="title">
  <title>china</title>
  <style>
    :root {
      color-scheme: light dark;
      --plate: #f5f5f5;
      --stroke: #d4d4d8;
      --fg: #111827;
      --badge-stroke: rgba(17, 24, 39, 0.12);
      --accent: #f97316;
    }
    @media (prefers-color-scheme: dark) {
      :root {
        --plate: #18181b;
        --stroke: #3f3f46;
        --fg: #fafafa;
        --badge-stroke: rgba(250, 250, 250, 0.14);
        --accent: #fb923c;
      }
    }
    .theme-dark {
      display: none;
    }
    @media (prefers-color-scheme: dark) {
      .theme-light {
        display: none;
      }
      .theme-dark {
        display: inline;
      }
    }
</style>
  <rect x="6" y="6" width="52" height="52" rx="14" fill="var(--plate)" stroke="var(--stroke)" stroke-width="2" />
  
  <defs>
    <clipPath id="flag-badge">
      <rect x="14" y="16" width="36" height="32" rx="8" />
    </clipPath>
  </defs>
  <g clip-path="url(#flag-badge)">
    <svg x="14" y="16" width="36" height="32" viewBox="0 0 640 480" xmlns:xlink="http://www.w3.org/1999/xlink"><defs>
    <path id="cn-a" fill="#ff0" d="M-.6.8 0-1 .6.8-1-.3h2z"/>
  </defs>
  <path fill="#ee1c25" d="M0 0h640v480H0z"/>
  <use xlink:href="#cn-a" width="30" height="20" transform="matrix(71.9991 0 0 72 120 120)"/>
  <use xlink:href="#cn-a" width="30" height="20" transform="matrix(-12.33562 -20.5871 20.58684 -12.33577 240.3 48)"/>
  <use xlink:href="#cn-a" width="30" height="20" transform="matrix(-3.38573 -23.75998 23.75968 -3.38578 288 95.8)"/>
  <use xlink:href="#cn-a" width="30" height="20" transform="matrix(6.5991 -23.0749 23.0746 6.59919 288 168)"/>
  <use xlink:href="#cn-a" width="30" height="20" transform="matrix(14.9991 -18.73557 18.73533 14.99929 240 216)"/></svg>
  </g>
  <rect x="14" y="16" width="36" height="32" rx="8" fill="none" stroke="var(--badge-stroke)" stroke-width="1.25" />
</svg>
