<svg xmlns="http://www.w3.org/2000/svg" viewBox="0 0 64 64" role="img" aria-labelledby="title">
  <title>korea</title>
  <style>
    :root {
      color-scheme: light dark;
      --plate: #f5f5f5;
      --stroke: #d4d4d8;
      --fg: #111827;
      --badge-stroke: rgba(17, 24, 39, 0.12);
      --accent: #f97316;
    }
    @media (prefers-color-scheme: dark) {
      :root {
        --plate: #18181b;
        --stroke: #3f3f46;
        --fg: #fafafa;
        --badge-stroke: rgba(250, 250, 250, 0.14);
        --accent: #fb923c;
      }
    }
    .theme-dark {
      display: none;
    }
    @media (prefers-color-scheme: dark) {
      .theme-light {
        display: none;
      }
      .theme-dark {
        display: inline;
      }
    }
</style>
  <rect x="6" y="6" width="52" height="52" rx="14" fill="var(--plate)" stroke="var(--stroke)" stroke-width="2" />
  
  <defs>
    <clipPath id="flag-badge">
      <rect x="14" y="16" width="36" height="32" rx="8" />
    </clipPath>
  </defs>
  <g clip-path="url(#flag-badge)">
    <svg x="14" y="16" width="36" height="32" viewBox="0 0 640 480" xmlns:xlink="http://www.w3.org/1999/xlink"><defs>
    <clipPath id="kr-a">
      <path fill-opacity=".7" d="M-95.8-.4h682.7v512H-95.8z"/>
    </clipPath>
  </defs>
  <g fill-rule="evenodd" clip-path="url(#kr-a)" transform="translate(89.8 .4)scale(.9375)">
    <path fill="#fff" d="M-95.8-.4H587v512H-95.8Z"/>
    <g transform="rotate(-56.3 361.6 -101.3)scale(10.66667)">
      <g id="kr-c">
        <path id="kr-b" fill="#000001" d="M-6-26H6v2H-6Zm0 3H6v2H-6Zm0 3H6v2H-6Z"/>
        <use xlink:href="#kr-b" width="100%" height="100%" y="44"/>
      </g>
      <path stroke="#fff" d="M0 17v10"/>
      <path fill="#cd2e3a" d="M0-12a12 12 0 0 1 0 24Z"/>
      <path fill="#0047a0" d="M0-12a12 12 0 0 0 0 24A6 6 0 0 0 0 0Z"/>
      <circle cy="-6" r="6" fill="#cd2e3a"/>
    </g>
    <g transform="rotate(-123.7 191.2 62.2)scale(10.66667)">
      <use xlink:href="#kr-c" width="100%" height="100%"/>
      <path stroke="#fff" d="M0-23.5v3M0 17v3.5m0 3v3"/>
    </g>
  </g></svg>
  </g>
  <rect x="14" y="16" width="36" height="32" rx="8" fill="none" stroke="var(--badge-stroke)" stroke-width="1.25" />
</svg>
