<svg xmlns="http://www.w3.org/2000/svg" viewBox="0 0 64 64" role="img" aria-labelledby="title">
  <title>Native Home</title>
  <style>
    :root {
      color-scheme: light dark;
      --plate: #f5f5f5;
      --stroke: #d4d4d8;
      --fg: #111827;
      --badge-stroke: rgba(17, 24, 39, 0.12);
      --accent: #f97316;
    }
    @media (prefers-color-scheme: dark) {
      :root {
        --plate: #18181b;
        --stroke: #3f3f46;
        --fg: #fafafa;
        --badge-stroke: rgba(250, 250, 250, 0.14);
        --accent: #fb923c;
      }
    }
    .theme-dark {
      display: none;
    }
    @media (prefers-color-scheme: dark) {
      .theme-light {
        display: none;
      }
      .theme-dark {
        display: inline;
      }
    }
</style>
  <rect x="6" y="6" width="52" height="52" rx="14" fill="var(--plate)" stroke="var(--stroke)" stroke-width="2" />
  
  <svg x="16" y="16" width="32" height="32" viewBox="0 0 24 24" fill="none" stroke="var(--fg)" stroke-width="1.8" stroke-linecap="round" stroke-linejoin="round">
    
      <path d="M15 21v-8a1 1 0 0 0-1-1h-4a1 1 0 0 0-1 1v8"/>
      <path d="M3 10a2 2 0 0 1 .709-1.528l7-6a2 2 0 0 1 2.582 0l7 6A2 2 0 0 1 21 10v9a2 2 0 0 1-2 2H5a2 2 0 0 1-2-2z"/>
    
  </svg>
</svg>
