<svg xmlns="http://www.w3.org/2000/svg" viewBox="0 0 64 64" role="img" aria-labelledby="title">
  <title>singapore</title>
  <style>
    :root {
      color-scheme: light dark;
      --plate: #f5f5f5;
      --stroke: #d4d4d8;
      --fg: #111827;
      --badge-stroke: rgba(17, 24, 39, 0.12);
      --accent: #f97316;
    }
    @media (prefers-color-scheme: dark) {
      :root {
        --plate: #18181b;
        --stroke: #3f3f46;
        --fg: #fafafa;
        --badge-stroke: rgba(250, 250, 250, 0.14);
        --accent: #fb923c;
      }
    }
    .theme-dark {
      display: none;
    }
    @media (prefers-color-scheme: dark) {
      .theme-light {
        display: none;
      }
      .theme-dark {
        display: inline;
      }
    }
</style>
  <rect x="6" y="6" width="52" height="52" rx="14" fill="var(--plate)" stroke="var(--stroke)" stroke-width="2" />
  
  <defs>
    <clipPath id="flag-badge">
      <rect x="14" y="16" width="36" height="32" rx="8" />
    </clipPath>
  </defs>
  <g clip-path="url(#flag-badge)">
    <svg x="14" y="16" width="36" height="32" viewBox="0 0 640 480" xmlns:xlink="http://www.w3.org/1999/xlink"><defs>
    <clipPath id="sg-a">
      <path fill-opacity=".7" d="M0 0h640v480H0z"/>
    </clipPath>
  </defs>
  <g fill-rule="evenodd" clip-path="url(#sg-a)">
    <path fill="#fff" d="M-20 0h720v480H-20z"/>
    <path fill="#df0000" d="M-20 0h720v240H-20z"/>
    <path fill="#fff" d="M146 40.2a84.4 84.4 0 0 0 .8 165.2 86 86 0 0 1-106.6-59 86 86 0 0 1 59-106c16-4.6 30.8-4.7 46.9-.2z"/>
    <path fill="#fff" d="m133 110 4.9 15-13-9.2-12.8 9.4 4.7-15.2-12.8-9.3 15.9-.2 5-15 5 15h15.8zm17.5 52 5 15.1-13-9.2-12.9 9.3 4.8-15.1-12.8-9.4 15.9-.1 4.9-15.1 5 15h16zm58.5-.4 4.9 15.2-13-9.3-12.8 9.3 4.7-15.1-12.8-9.3 15.9-.2 5-15 5 15h15.8zm17.4-51.6 4.9 15.1-13-9.2-12.8 9.3 4.8-15.1-12.9-9.4 16-.1 4.8-15.1 5 15h16zm-46.3-34.3 5 15.2-13-9.3-12.9 9.4 4.8-15.2-12.8-9.4 15.8-.1 5-15.1 5 15h16z"/>
  </g></svg>
  </g>
  <rect x="14" y="16" width="36" height="32" rx="8" fill="none" stroke="var(--badge-stroke)" stroke-width="1.25" />
</svg>
