<svg xmlns="http://www.w3.org/2000/svg" viewBox="0 0 64 64" role="img" aria-labelledby="title">
  <title>Speedtest</title>
  <style>
    :root {
      color-scheme: light dark;
      --plate: #f5f5f5;
      --stroke: #d4d4d8;
      --fg: #111827;
    }
    @media (prefers-color-scheme: dark) {
      :root {
        --plate: #18181b;
        --stroke: #3f3f46;
        --fg: #fafafa;
      }
    }
  </style>
  <rect x="6" y="6" width="52" height="52" rx="14" fill="var(--plate)" stroke="var(--stroke)" stroke-width="2" />
  <path
    fill="var(--fg)"
    transform="translate(15.2 15.2) scale(1.4)"
    d="M11.628 16.186l-2.047-2.14 6.791-5.953 1.21 1.302zm8.837 6.047c2.14-2.14 3.535-5.117 3.535-8.466 0-6.604-5.395-12-12-12s-12 5.396-12 12c0 3.35 1.302 6.326 3.535 8.466l1.674-1.675c-1.767-1.767-2.79-4.093-2.79-6.79A9.568 9.568 0 0 1 12 4.185a9.568 9.568 0 0 1 9.581 9.581c0 2.605-1.116 5.024-2.79 6.791Z"
  />
</svg>
