<svg xmlns="http://www.w3.org/2000/svg" viewBox="0 0 64 64" role="img" aria-labelledby="title">
  <title>x</title>
  <style>
    :root {
      color-scheme: light dark;
      --plate: #f5f5f5;
      --stroke: #d4d4d8;
      --fg: #111827;
      --badge-stroke: rgba(17, 24, 39, 0.12);
      --accent: #f97316;
    }
    @media (prefers-color-scheme: dark) {
      :root {
        --plate: #18181b;
        --stroke: #3f3f46;
        --fg: #fafafa;
        --badge-stroke: rgba(250, 250, 250, 0.14);
        --accent: #fb923c;
      }
    }
    .theme-dark {
      display: none;
    }
    @media (prefers-color-scheme: dark) {
      .theme-light {
        display: none;
      }
      .theme-dark {
        display: inline;
      }
    }
</style>
  <rect x="6" y="6" width="52" height="52" rx="14" fill="var(--plate)" stroke="var(--stroke)" stroke-width="2" />
  
  <g class="theme-light">
    <svg x="17" y="17" width="30" height="30" viewBox="0 0 512 512" xml:space="preserve"><path d="M304.7 216.8 495.2 0h-45.1L284.6 188.2 152.6 0H.2l199.7 284.7L.2 512h45.1L220 313.2 359.4 512h152.3M61.6 33.3h69.3l319.1 447h-69.3"/></svg>
  </g>
  <g class="theme-dark">
    <svg x="17" y="17" width="30" height="30" viewBox="0 0 512 512" xml:space="preserve"><path fill="#f2f2f2" d="M304.7 216.8 495.2 0h-45.1L284.6 188.2 152.6 0H.2l199.7 284.7L.2 512h45.1L220 313.2 359.4 512h152.3M61.6 33.3h69.3l319.1 447h-69.3"/></svg>
  </g>
</svg>
