<svg xmlns="http://www.w3.org/2000/svg" viewBox="0 0 64 64" role="img" aria-labelledby="title">
  <title>youtube</title>
  <style>
    :root {
      color-scheme: light dark;
      --plate: #f5f5f5;
      --stroke: #d4d4d8;
      --fg: #111827;
      --badge-stroke: rgba(17, 24, 39, 0.12);
      --accent: #f97316;
    }
    @media (prefers-color-scheme: dark) {
      :root {
        --plate: #18181b;
        --stroke: #3f3f46;
        --fg: #fafafa;
        --badge-stroke: rgba(250, 250, 250, 0.14);
        --accent: #fb923c;
      }
    }
    .theme-dark {
      display: none;
    }
    @media (prefers-color-scheme: dark) {
      .theme-light {
        display: none;
      }
      .theme-dark {
        display: inline;
      }
    }
</style>
  <rect x="6" y="6" width="52" height="52" rx="14" fill="var(--plate)" stroke="var(--stroke)" stroke-width="2" />
  <svg x="15.5" y="15.5" width="33" height="33" viewBox="0 76.8 512 358.4" xml:space="preserve"><path d="M501.3 132.8c-5.9-22-23.2-39.4-45.3-45.3-39.9-10.7-200-10.7-200-10.7s-160.1 0-200 10.7c-22 5.9-39.4 23.2-45.3 45.3C0 172.7 0 256 0 256s0 83.3 10.7 123.2c5.9 22 23.2 39.4 45.3 45.3 39.9 10.7 200 10.7 200 10.7s160.1 0 200-10.7c22-5.9 39.4-23.2 45.3-45.3C512 339.3 512 256 512 256s0-83.3-10.7-123.2" style="fill:red"/><path d="m204.8 332.8 133-76.8-133-76.8z" style="fill:#fff"/></svg>
</svg>
