<svg xmlns="http://www.w3.org/2000/svg" viewBox="0 0 64 64" role="img" aria-label="china">
  <title>china</title>
  <defs>
    <linearGradient id="plate" x1="12" x2="52" y1="10" y2="54" gradientUnits="userSpaceOnUse">
      <stop offset="0%" stop-color="#f8fafc" />
      <stop offset="100%" stop-color="#e7edf5" />
    </linearGradient>
    <filter id="shadow" x="-20%" y="-20%" width="140%" height="140%">
      <feDropShadow dx="0" dy="2" stdDeviation="2.4" flood-color="#0f172a" flood-opacity="0.14" />
    </filter>
  </defs>
  <g filter="url(#shadow)">
    <rect x="6" y="6" width="52" height="52" rx="14" fill="url(#plate)" stroke="#cbd5e1" stroke-width="1.5" />
  </g>
  
  <defs>
    <clipPath id="flag-badge">
      <rect x="14" y="16" width="36" height="32" rx="8" />
    </clipPath>
  </defs>
  <g clip-path="url(#flag-badge)">
    <svg x="14" y="16" width="36" height="32" viewBox="0 0 640 480" xmlns:xlink="http://www.w3.org/1999/xlink"><defs>
    <path id="cn-a" fill="#ff0" d="M-.6.8 0-1 .6.8-1-.3h2z"/>
  </defs>
  <path fill="#ee1c25" d="M0 0h640v480H0z"/>
  <use xlink:href="#cn-a" width="30" height="20" transform="matrix(71.9991 0 0 72 120 120)"/>
  <use xlink:href="#cn-a" width="30" height="20" transform="matrix(-12.33562 -20.5871 20.58684 -12.33577 240.3 48)"/>
  <use xlink:href="#cn-a" width="30" height="20" transform="matrix(-3.38573 -23.75998 23.75968 -3.38578 288 95.8)"/>
  <use xlink:href="#cn-a" width="30" height="20" transform="matrix(6.5991 -23.0749 23.0746 6.59919 288 168)"/>
  <use xlink:href="#cn-a" width="30" height="20" transform="matrix(14.9991 -18.73557 18.73533 14.99929 240 216)"/></svg>
  </g>
  <rect x="14" y="16" width="36" height="32" rx="8" fill="none" stroke="#d7dee8" stroke-width="1.25" />
</svg>
