<svg xmlns="http://www.w3.org/2000/svg" viewBox="0 0 64 64" role="img" aria-label="hong-kong">
  <title>hong-kong</title>
  <defs>
    <linearGradient id="plate" x1="12" x2="52" y1="10" y2="54" gradientUnits="userSpaceOnUse">
      <stop offset="0%" stop-color="#f8fafc" />
      <stop offset="100%" stop-color="#e7edf5" />
    </linearGradient>
    <filter id="shadow" x="-20%" y="-20%" width="140%" height="140%">
      <feDropShadow dx="0" dy="2" stdDeviation="2.4" flood-color="#0f172a" flood-opacity="0.14" />
    </filter>
  </defs>
  <g filter="url(#shadow)">
    <rect x="6" y="6" width="52" height="52" rx="14" fill="url(#plate)" stroke="#cbd5e1" stroke-width="1.5" />
  </g>
  
  <defs>
    <clipPath id="flag-badge">
      <rect x="14" y="16" width="36" height="32" rx="8" />
    </clipPath>
  </defs>
  <g clip-path="url(#flag-badge)">
    <svg x="14" y="16" width="36" height="32" viewBox="0 0 640 480" xmlns:xlink="http://www.w3.org/1999/xlink"><path fill="#EC1B2E" d="M0 0h640v480H0"/>
  <path id="hk-a" fill="#fff" d="M346.3 103.1C267 98 230.6 201.9 305.6 240.3c-26-22.4-20.6-55.3-10.1-72.4l1.9 1.1c-13.8 23.5-11.2 52.7 11.1 71-12.7-12.3-9.5-39 12.1-48.9s23.6-39.3 16.4-49.1q-14.7-25.6 9.3-38.9M307.9 164l-4.7 7.4-1.8-8.6-8.6-2.3 7.8-4.3-.6-8.9 6.5 6.1 8.3-3.3-3.7 8.1 5.6 6.8z"/>
  <use xlink:href="#hk-a" transform="rotate(72 312.5 243.5)"/>
  <use xlink:href="#hk-a" transform="rotate(144 312.5 243.5)"/>
  <use xlink:href="#hk-a" transform="rotate(216 312.5 243.5)"/>
  <use xlink:href="#hk-a" transform="rotate(288 312.5 243.5)"/></svg>
  </g>
  <rect x="14" y="16" width="36" height="32" rx="8" fill="none" stroke="#d7dee8" stroke-width="1.25" />
</svg>
