<svg xmlns="http://www.w3.org/2000/svg" viewBox="0 0 64 64" role="img" aria-labelledby="title">
  <title>singapore</title>
  <defs>
    <linearGradient id="plate" x1="12" x2="52" y1="10" y2="54" gradientUnits="userSpaceOnUse">
      <stop offset="0%" stop-color="#f8fafc" />
      <stop offset="100%" stop-color="#e7edf5" />
    </linearGradient>
    <filter id="shadow" x="-20%" y="-20%" width="140%" height="140%">
      <feDropShadow dx="0" dy="2" stdDeviation="2.4" flood-color="#0f172a" flood-opacity="0.14" />
    </filter>
  </defs>
  <g filter="url(#shadow)">
    <rect x="6" y="6" width="52" height="52" rx="14" fill="url(#plate)" stroke="#cbd5e1" stroke-width="1.5" />
  </g>
  
  <defs>
    <clipPath id="flag-badge">
      <rect x="14" y="16" width="36" height="32" rx="8" />
    </clipPath>
  </defs>
  <g clip-path="url(#flag-badge)">
    <svg x="14" y="16" width="36" height="32" viewBox="0 0 640 480" xmlns:xlink="http://www.w3.org/1999/xlink"><defs>
    <clipPath id="sg-a">
      <path fill-opacity=".7" d="M0 0h640v480H0z"/>
    </clipPath>
  </defs>
  <g fill-rule="evenodd" clip-path="url(#sg-a)">
    <path fill="#fff" d="M-20 0h720v480H-20z"/>
    <path fill="#df0000" d="M-20 0h720v240H-20z"/>
    <path fill="#fff" d="M146 40.2a84.4 84.4 0 0 0 .8 165.2 86 86 0 0 1-106.6-59 86 86 0 0 1 59-106c16-4.6 30.8-4.7 46.9-.2z"/>
    <path fill="#fff" d="m133 110 4.9 15-13-9.2-12.8 9.4 4.7-15.2-12.8-9.3 15.9-.2 5-15 5 15h15.8zm17.5 52 5 15.1-13-9.2-12.9 9.3 4.8-15.1-12.8-9.4 15.9-.1 4.9-15.1 5 15h16zm58.5-.4 4.9 15.2-13-9.3-12.8 9.3 4.7-15.1-12.8-9.3 15.9-.2 5-15 5 15h15.8zm17.4-51.6 4.9 15.1-13-9.2-12.8 9.3 4.8-15.1-12.9-9.4 16-.1 4.8-15.1 5 15h16zm-46.3-34.3 5 15.2-13-9.3-12.9 9.4 4.8-15.2-12.8-9.4 15.8-.1 5-15.1 5 15h16z"/>
  </g></svg>
  </g>
  <rect x="14" y="16" width="36" height="32" rx="8" fill="none" stroke="#d7dee8" stroke-width="1.25" />
</svg>
