<svg xmlns="http://www.w3.org/2000/svg" viewBox="0 0 64 64" role="img" aria-labelledby="title">
  <title>Streaming</title>
  <defs>
    <linearGradient id="plate" x1="12" x2="52" y1="10" y2="54" gradientUnits="userSpaceOnUse">
      <stop offset="0%" stop-color="#f8fafc" />
      <stop offset="100%" stop-color="#e7edf5" />
    </linearGradient>
    <filter id="shadow" x="-20%" y="-20%" width="140%" height="140%">
      <feDropShadow dx="0" dy="2" stdDeviation="2.4" flood-color="#0f172a" flood-opacity="0.14" />
    </filter>
  </defs>
  <g filter="url(#shadow)">
    <rect x="6" y="6" width="52" height="52" rx="14" fill="url(#plate)" stroke="#cbd5e1" stroke-width="1.5" />
  </g>
  
  <svg x="16" y="16" width="32" height="32" viewBox="0 0 24 24" fill="none" stroke="#0f172a" stroke-width="1.85" stroke-linecap="round" stroke-linejoin="round">
    
      <path d="m12.296 3.464 3.02 3.956"/>
      <path d="M20.2 6 3 11l-.9-2.4c-.3-1.1.3-2.2 1.3-2.5l13.5-4c1.1-.3 2.2.3 2.5 1.3z"/>
      <path d="M3 11h18v8a2 2 0 0 1-2 2H5a2 2 0 0 1-2-2z"/>
      <path d="m6.18 5.276 3.1 3.899"/>
    
  </svg>
</svg>
