<svg xmlns="http://www.w3.org/2000/svg" viewBox="0 0 64 64" role="img" aria-label="youtube">
  <title>youtube</title>
  <svg x="9" y="9" width="46" height="46" viewBox="0 76.8 512 358.4" xml:space="preserve"><path d="M501.3 132.8c-5.9-22-23.2-39.4-45.3-45.3-39.9-10.7-200-10.7-200-10.7s-160.1 0-200 10.7c-22 5.9-39.4 23.2-45.3 45.3C0 172.7 0 256 0 256s0 83.3 10.7 123.2c5.9 22 23.2 39.4 45.3 45.3 39.9 10.7 200 10.7 200 10.7s160.1 0 200-10.7c22-5.9 39.4-23.2 45.3-45.3C512 339.3 512 256 512 256s0-83.3-10.7-123.2" style="fill:red"/><path d="m204.8 332.8 133-76.8-133-76.8z" style="fill:#fff"/></svg>
</svg>
